<svg xmlns="http://www.w3.org/2000/svg" version="1.1" xmlns:xlink="http://www.w3.org/1999/xlink" xmlns:svgjs="http://svgjs.dev/svgjs" width="1500" height="1500" viewBox="0 0 1500 1500"><rect width="1500" height="1500" fill="#000000"></rect><g transform="matrix(0.6666666666666666,0,0,0.6666666666666666,249.39393939393938,573.4889219658064)"><svg viewBox="0 0 396 140" data-background-color="#6936f5" preserveAspectRatio="xMidYMid meet" height="530" width="1500" xmlns="http://www.w3.org/2000/svg" xmlns:xlink="http://www.w3.org/1999/xlink"><g id="tight-bounds" transform="matrix(1,0,0,1,0.2400000000000091,-0.06164832607419157)"><svg viewBox="0 0 395.52 140.1232966521484" height="140.1232966521484" width="395.52"><g><svg viewBox="0 0 689.9458820698371 244.43135999999998" height="140.1232966521484" width="395.52"><g transform="matrix(1,0,0,1,294.4258820698372,79.86108057452921)"><svg viewBox="0 0 395.52 84.70919885094158" height="84.70919885094158" width="395.52"><g id="textblocktransform"><svg viewBox="0 0 395.52 84.70919885094158" height="84.70919885094158" width="395.52" id="textblock"><g><svg viewBox="0 0 395.52 84.70919885094158" height="84.70919885094158" width="395.52"><g transform="matrix(1,0,0,1,0,0)"><svg width="395.52" viewBox="2.45 -32.9 156.63000000000002 33.55" height="84.70919885094158" data-palette-color="#ffffff"><path d="M14.45-20.4L14.45-20.4 14.45-20.4Q11.05-20.4 8.8-18.1 6.55-15.8 6.55-11.5L6.55-11.5Q6.55-7.25 8.72-4.95 10.9-2.65 14.45-2.65L14.45-2.65Q16.55-2.65 17.95-3.23 19.35-3.8 20.45-4.55L20.45-4.55Q21-4.25 21.35-3.8 21.7-3.35 21.7-2.7L21.7-2.7Q21.7-1.3 19.63-0.33 17.55 0.65 14.45 0.65L14.45 0.65Q11 0.65 8.28-0.68 5.55-2 4-4.7 2.45-7.4 2.45-11.5L2.45-11.5Q2.45-15.55 4.05-18.28 5.65-21 8.38-22.38 11.1-23.75 14.35-23.75L14.35-23.75Q17.45-23.75 19.48-22.7 21.5-21.65 21.5-20.3L21.5-20.3Q21.5-19.7 21.15-19.25 20.8-18.8 20.25-18.55L20.25-18.55Q19.15-19.3 17.82-19.85 16.5-20.4 14.45-20.4ZM43.95-6.15L43.95-6.15 43.95-6.15Q43.95-2.95 41.6-1.15 39.25 0.65 34.8 0.65L34.8 0.65Q31 0.65 28.6-0.53 26.2-1.7 26.2-3.1L26.2-3.1Q26.2-3.7 26.52-4.28 26.85-4.85 27.5-5.2L27.5-5.2Q28.85-4.25 30.65-3.45 32.45-2.65 34.75-2.65L34.75-2.65Q39.95-2.65 39.95-6.15L39.95-6.15Q39.95-7.6 39.07-8.53 38.2-9.45 36.5-9.85L36.5-9.85 32.35-10.95Q29.3-11.7 27.9-13.28 26.5-14.85 26.5-17.2L26.5-17.2Q26.5-19.85 28.65-21.8 30.8-23.75 35.2-23.75L35.2-23.75Q37.55-23.75 39.3-23.28 41.05-22.8 42.02-22.03 43-21.25 43-20.35L43-20.35Q43-19.7 42.67-19.2 42.35-18.7 41.8-18.45L41.8-18.45Q41.2-18.85 40.27-19.33 39.35-19.8 38.1-20.13 36.85-20.45 35.35-20.45L35.35-20.45Q33.15-20.45 31.8-19.6 30.45-18.75 30.45-17.2L30.45-17.2Q30.45-16.1 31.22-15.28 32-14.45 33.7-14.05L33.7-14.05 37.15-13.2Q40.55-12.4 42.25-10.68 43.95-8.95 43.95-6.15ZM66.3-6.15L66.3-6.15 66.3-6.15Q66.3-2.95 63.95-1.15 61.6 0.65 57.15 0.65L57.15 0.65Q53.35 0.65 50.95-0.53 48.55-1.7 48.55-3.1L48.55-3.1Q48.55-3.7 48.87-4.28 49.2-4.85 49.85-5.2L49.85-5.2Q51.2-4.25 53-3.45 54.8-2.65 57.1-2.65L57.1-2.65Q62.3-2.65 62.3-6.15L62.3-6.15Q62.3-7.6 61.42-8.53 60.55-9.45 58.85-9.85L58.85-9.85 54.7-10.95Q51.65-11.7 50.25-13.28 48.85-14.85 48.85-17.2L48.85-17.2Q48.85-19.85 51-21.8 53.15-23.75 57.55-23.75L57.55-23.75Q59.9-23.75 61.65-23.28 63.4-22.8 64.37-22.03 65.34-21.25 65.34-20.35L65.34-20.35Q65.34-19.7 65.02-19.2 64.7-18.7 64.15-18.45L64.15-18.45Q63.55-18.85 62.62-19.33 61.7-19.8 60.45-20.13 59.2-20.45 57.7-20.45L57.7-20.45Q55.5-20.45 54.15-19.6 52.8-18.75 52.8-17.2L52.8-17.2Q52.8-16.1 53.57-15.28 54.35-14.45 56.05-14.05L56.05-14.05 59.5-13.2Q62.9-12.4 64.59-10.68 66.3-8.95 66.3-6.15ZM72.34-8.45L72.34-8.45 72.34-13 76.34-13 76.34-8.65Q76.34-5.45 78.04-4.05 79.74-2.65 82.74-2.65L82.74-2.65Q84.74-2.65 86.14-3.08 87.54-3.5 88.34-3.95L88.34-3.95 88.34-13 92.34-13 92.34-4.1Q92.34-3.05 92.07-2.43 91.79-1.8 90.74-1.2L90.74-1.2Q89.64-0.55 87.59 0.05 85.54 0.65 82.69 0.65L82.69 0.65Q79.39 0.65 77.07-0.33 74.74-1.3 73.54-3.33 72.34-5.35 72.34-8.45ZM92.34-21.5L92.34-10.4 88.34-10.4 88.34-23Q88.59-23.1 89.12-23.23 89.64-23.35 90.19-23.35L90.19-23.35Q91.29-23.35 91.82-22.93 92.34-22.5 92.34-21.5L92.34-21.5ZM76.34-21.5L76.34-10.4 72.34-10.4 72.34-23Q72.59-23.1 73.12-23.23 73.64-23.35 74.24-23.35L74.24-23.35Q75.29-23.35 75.82-22.93 76.34-22.5 76.34-21.5L76.34-21.5ZM99.89-6.05L99.89-13.2 103.89-13.2 103.89-6.3Q103.89-4.3 105.04-3.48 106.19-2.65 108.19-2.65L108.19-2.65Q109.04-2.65 110.09-2.95 111.14-3.25 111.84-3.65L111.84-3.65Q112.14-3.35 112.39-2.9 112.64-2.45 112.64-1.85L112.64-1.85Q112.64-0.75 111.34-0.05 110.04 0.65 107.74 0.65L107.74 0.65Q104.24 0.65 102.06-0.9 99.89-2.45 99.89-6.05L99.89-6.05ZM111.04-19.3L101.94-19.3 101.94-22.6 112.09-22.6Q112.24-22.4 112.39-21.95 112.54-21.5 112.54-21L112.54-21Q112.54-20.2 112.14-19.75 111.74-19.3 111.04-19.3L111.04-19.3ZM103.89-28.35L103.89-11.7 99.89-11.7 99.89-29.8Q100.14-29.9 100.67-30.03 101.19-30.15 101.79-30.15L101.79-30.15Q102.84-30.15 103.37-29.73 103.89-29.3 103.89-28.35L103.89-28.35ZM118.09-30.4L118.09-30.4 118.09-30.4Q118.09-31.45 118.84-32.18 119.59-32.9 120.69-32.9L120.69-32.9Q121.84-32.9 122.54-32.18 123.24-31.45 123.24-30.4L123.24-30.4Q123.24-29.35 122.54-28.63 121.84-27.9 120.69-27.9L120.69-27.9Q119.59-27.9 118.84-28.63 118.09-29.35 118.09-30.4ZM118.69-1.55L118.69-13.2 122.69-13.2 122.69-0.1Q122.44 0 121.94 0.13 121.44 0.25 120.84 0.25L120.84 0.25Q119.79 0.25 119.24-0.18 118.69-0.6 118.69-1.55L118.69-1.55ZM122.69-21.5L122.69-11.25 118.69-11.25 118.69-23Q118.94-23.1 119.46-23.23 119.99-23.35 120.59-23.35L120.59-23.35Q121.64-23.35 122.16-22.93 122.69-22.5 122.69-21.5L122.69-21.5ZM130.88-1.55L130.88-13.2 134.88-12.6 134.88-0.1Q134.63 0 134.13 0.13 133.63 0.25 133.03 0.25L133.03 0.25Q131.99 0.25 131.44-0.18 130.88-0.6 130.88-1.55L130.88-1.55ZM134.88-30.95L134.88-10.7 130.88-11.25 130.88-32.4Q131.13-32.5 131.66-32.63 132.19-32.75 132.74-32.75L132.74-32.75Q133.84-32.75 134.36-32.33 134.88-31.9 134.88-30.95L134.88-30.95ZM159.08-6.15L159.08-6.15 159.08-6.15Q159.08-2.95 156.73-1.15 154.38 0.65 149.93 0.65L149.93 0.65Q146.13 0.65 143.73-0.53 141.33-1.7 141.33-3.1L141.33-3.1Q141.33-3.7 141.66-4.28 141.98-4.85 142.63-5.2L142.63-5.2Q143.98-4.25 145.78-3.45 147.58-2.65 149.88-2.65L149.88-2.65Q155.08-2.65 155.08-6.15L155.08-6.15Q155.08-7.6 154.21-8.53 153.33-9.45 151.63-9.85L151.63-9.85 147.48-10.95Q144.43-11.7 143.03-13.28 141.63-14.85 141.63-17.2L141.63-17.2Q141.63-19.85 143.78-21.8 145.93-23.75 150.33-23.75L150.33-23.75Q152.68-23.75 154.43-23.28 156.18-22.8 157.16-22.03 158.13-21.25 158.13-20.35L158.13-20.35Q158.13-19.7 157.81-19.2 157.48-18.7 156.93-18.45L156.93-18.45Q156.33-18.85 155.41-19.33 154.48-19.8 153.23-20.13 151.98-20.45 150.48-20.45L150.48-20.45Q148.28-20.45 146.93-19.6 145.58-18.75 145.58-17.2L145.58-17.2Q145.58-16.1 146.36-15.28 147.13-14.45 148.83-14.05L148.83-14.05 152.28-13.2Q155.68-12.4 157.38-10.68 159.08-8.95 159.08-6.15Z" opacity="1" transform="matrix(1,0,0,1,0,0)" fill="#ffffff" class="wordmark-text-0" data-fill-palette-color="primary" id="text-0"></path></svg></g></svg></g></svg></g></svg></g><g><svg viewBox="0 0 244.43135999999998 244.43135999999998" height="244.43135999999998" width="244.43135999999998"><g><svg viewBox="0 0 244.43135999999998 244.43135999999998" height="244.43135999999998" width="244.43135999999998"><g transform="matrix(1,0,0,1,69.5470254943896,64.60265593644993)"><svg viewBox="0 0 105.33730901122078 115.22604812710013" height="115.22604812710013" width="105.33730901122078"><g><svg xmlns="http://www.w3.org/2000/svg" xmlns:xlink="http://www.w3.org/1999/xlink" version="1.1" x="0" y="0" viewBox="25.249000000000002 24.427 49.501 54.148" enable-background="new 0 0 100 100" xml:space="preserve" height="115.22604812710013" width="105.33730901122078" class="icon-cg-0" data-fill-palette-color="accent" id="cg-0"><path d="M25.25 26.427c0-1.1 0.9-2 2-2h45.5c1.1 0 2 0.9 2 2v8.039c0 1.1-0.602 2-1.337 2-0.735 0-1.7-0.824-2.143-1.83l-1.733-3.934c-0.443-1.007-1.706-1.83-2.806-1.83H56.682c-1.1 0-2 0.9-2 2v40.353c0 1.1 0.862 2.259 1.916 2.575l4.196 1.259c1.054 0.316 1.916 1.236 1.916 2.045 0 0.809-0.9 1.471-2 1.471H39.292c-1.1 0-2-0.662-2-1.471 0-0.809 0.862-1.729 1.916-2.045l4.195-1.259c1.054-0.316 1.916-1.475 1.916-2.575V30.871c0-1.1-0.9-2-2-2H33.27c-1.1 0-2.363 0.824-2.806 1.831l-1.732 3.934c-0.443 1.007-1.408 1.831-2.144 1.831-0.736 0-1.339-0.9-1.339-2V26.427z" fill="#ffffff" data-fill-palette-color="accent"></path></svg></g></svg></g><g id="text-0"><path d="M11.911 80.33v0 0c-0.583 1.724-0.487 3.354 0.288 4.89 0.784 1.532 2.268 2.667 4.451 3.406v0c2.158 0.73 4.007 0.744 5.547 0.041 1.536-0.711 2.608-1.967 3.218-3.768v0c0.361-1.066 0.519-2.006 0.473-2.818-0.054-0.808-0.178-1.555-0.373-2.239v0c0.248-0.229 0.518-0.394 0.808-0.495 0.29-0.101 0.598-0.096 0.924 0.013v0c0.715 0.242 1.14 0.973 1.275 2.193 0.142 1.222-0.055 2.622-0.588 4.199v0c-0.592 1.749-1.46 3.199-2.603 4.349-1.139 1.159-2.528 1.898-4.167 2.219-1.632 0.323-3.489 0.132-5.57-0.572v0c-2.056-0.696-3.636-1.682-4.741-2.96-1.111-1.28-1.78-2.73-2.007-4.351-0.236-1.617-0.075-3.249 0.482-4.896v0c0.534-1.577 1.243-2.789 2.127-3.635 0.878-0.849 1.661-1.156 2.351-0.923v0c0.3 0.102 0.535 0.281 0.704 0.537 0.169 0.257 0.27 0.547 0.303 0.871v0c-0.571 0.426-1.11 0.926-1.618 1.502-0.504 0.584-0.931 1.396-1.284 2.437z" fill="#ffffff" data-fill-palette-color="accent"></path><path d="M46.833 46.179v0 0c1.312 1.11 1.931 2.455 1.858 4.034-0.078 1.585-0.888 3.288-2.43 5.11v0c-1.315 1.554-2.628 2.615-3.938 3.184-1.31 0.578-2.251 0.625-2.822 0.142v0c-0.247-0.209-0.432-0.48-0.556-0.815-0.123-0.325-0.143-0.682-0.06-1.071v0c0.852-0.224 1.754-0.565 2.705-1.022 0.951-0.467 1.823-1.168 2.615-2.105v0c1.802-2.13 1.988-3.801 0.558-5.011v0c-0.592-0.501-1.23-0.732-1.916-0.694-0.676 0.037-1.392 0.336-2.149 0.897v0l-2.82 1.971c-1.367 0.989-2.613 1.497-3.74 1.525-1.126 0.027-2.171-0.367-3.133-1.181v0c-1.086-0.919-1.655-2.155-1.708-3.71-0.058-1.55 0.676-3.225 2.199-5.026v0c0.814-0.962 1.622-1.718 2.422-2.268 0.801-0.55 1.528-0.888 2.183-1.014 0.653-0.136 1.165-0.047 1.536 0.266v0c0.262 0.222 0.44 0.487 0.532 0.795 0.093 0.308 0.097 0.616 0.013 0.925v0c-0.374 0.108-0.819 0.269-1.337 0.484-0.513 0.21-1.05 0.516-1.61 0.916-0.569 0.401-1.113 0.908-1.631 1.521v0c-0.762 0.901-1.203 1.772-1.324 2.614-0.116 0.847 0.143 1.538 0.776 2.073v0c0.448 0.379 0.974 0.555 1.579 0.529 0.61-0.032 1.288-0.327 2.035-0.887v0l2.314-1.671c1.505-1.111 2.904-1.715 4.196-1.814 1.293-0.098 2.51 0.336 3.653 1.303z" fill="#ffffff" data-fill-palette-color="accent"></path><path d="M79.294 24.018v0 0c0.821 1.51 0.912 2.988 0.271 4.434-0.647 1.449-2.018 2.744-4.114 3.884v0c-1.788 0.973-3.396 1.487-4.824 1.542-1.43 0.065-2.324-0.232-2.682-0.889v0c-0.155-0.284-0.229-0.604-0.224-0.961 0.003-0.347 0.113-0.687 0.332-1.02v0c0.875 0.099 1.839 0.108 2.892 0.027 1.056-0.091 2.122-0.429 3.199-1.016v0c2.451-1.333 3.229-2.823 2.334-4.469v0c-0.37-0.681-0.882-1.128-1.535-1.341-0.644-0.21-1.42-0.191-2.328 0.058v0l-3.342 0.817c-1.632 0.427-2.978 0.45-4.038 0.067-1.06-0.383-1.891-1.127-2.493-2.234v0c-0.68-1.249-0.763-2.608-0.25-4.077 0.507-1.465 1.797-2.762 3.87-3.889v0c1.107-0.602 2.134-1.015 3.079-1.238 0.945-0.223 1.746-0.275 2.401-0.155 0.658 0.11 1.103 0.378 1.336 0.804v0c0.164 0.302 0.234 0.613 0.208 0.934-0.025 0.321-0.133 0.609-0.323 0.866v0c-0.387-0.035-0.861-0.046-1.421-0.032-0.555 0.01-1.165 0.101-1.832 0.272-0.676 0.168-1.366 0.444-2.071 0.827v0c-1.036 0.564-1.763 1.216-2.181 1.957-0.415 0.747-0.424 1.485-0.027 2.214v0c0.28 0.515 0.707 0.87 1.281 1.064 0.58 0.191 1.319 0.161 2.218-0.09v0l2.762-0.72c1.805-0.491 3.328-0.548 4.568-0.172 1.241 0.376 2.218 1.222 2.934 2.536z" fill="#ffffff" data-fill-palette-color="accent"></path><path d="M104.332 14.97v0l-0.435-3.624 3.192-0.383 0.417 3.473c0.204 1.7 0.802 2.867 1.795 3.501 0.993 0.634 2.289 0.856 3.888 0.664v0c1.064-0.128 1.954-0.347 2.671-0.657 0.716-0.317 1.273-0.621 1.672-0.913v0l-0.866-7.218 3.192-0.383 0.852 7.097c0.067 0.562 0.047 1.016-0.061 1.362-0.107 0.352-0.422 0.723-0.946 1.111v0c-0.541 0.411-1.338 0.843-2.39 1.295-1.052 0.452-2.335 0.769-3.847 0.951v0c-1.76 0.211-3.287 0.13-4.582-0.244-1.3-0.367-2.336-1.05-3.107-2.051-0.765-1.001-1.247-2.328-1.445-3.981zM119.043 2.644l1.063 8.854-3.192 0.383-1.206-10.049c0.127-0.07 0.324-0.154 0.59-0.254 0.273-0.101 0.557-0.169 0.852-0.204v0c0.582-0.07 1.028-0.008 1.336 0.186 0.308 0.194 0.494 0.555 0.557 1.084zM106.274 4.177l1.063 8.854-3.192 0.383-1.206-10.049c0.127-0.07 0.328-0.155 0.6-0.255 0.266-0.1 0.56-0.169 0.882-0.208v0c0.555-0.067 0.987-0.003 1.296 0.191 0.308 0.194 0.494 0.555 0.557 1.084z" fill="#ffffff" data-fill-palette-color="accent"></path><path d="M147.75 18.447l1.486-5.548 3.106 0.832-1.434 5.352c-0.277 1.035-0.177 1.847 0.3 2.436 0.486 0.584 1.246 1.014 2.281 1.291v0c0.436 0.117 0.948 0.174 1.535 0.17 0.582-0.012 1.084-0.073 1.504-0.183v0c0.114 0.198 0.202 0.431 0.263 0.699 0.069 0.263 0.062 0.55-0.021 0.863v0c-0.152 0.566-0.612 0.942-1.381 1.127-0.768 0.185-1.748 0.118-2.939-0.202v0c-1.81-0.485-3.17-1.282-4.08-2.391-0.912-1.103-1.118-2.585-0.62-4.447zM159.158 10.48l-7.061-1.891 0.685-2.559 7.882 2.111c0.05 0.125 0.08 0.314 0.088 0.568 0.017 0.249-0.009 0.503-0.079 0.764v0c-0.112 0.417-0.299 0.712-0.562 0.886-0.271 0.179-0.589 0.219-0.953 0.121zM155.491 1.973l-3.461 12.92-3.105-0.832 3.762-14.043c0.144-0.017 0.362-0.022 0.652-0.014 0.284 0.006 0.583 0.051 0.896 0.135v0c0.54 0.145 0.918 0.364 1.131 0.659 0.216 0.288 0.258 0.68 0.125 1.175z" fill="#ffffff" data-fill-palette-color="accent"></path><path d="M191.586 16.502v0 0c0.309-0.474 0.738-0.762 1.286-0.863 0.547-0.11 1.068-0.004 1.566 0.32v0c0.514 0.335 0.822 0.769 0.925 1.303 0.107 0.528 0.005 1.029-0.304 1.503v0c-0.305 0.469-0.723 0.764-1.253 0.886-0.53 0.121-1.051 0.015-1.565-0.32v0c-0.497-0.324-0.805-0.758-0.925-1.303-0.125-0.548-0.035-1.057 0.27-1.526zM179.336 36.192l5.111-7.845 2.694 1.756-5.746 8.818c-0.142-0.028-0.345-0.088-0.607-0.179-0.263-0.091-0.527-0.223-0.793-0.395v0c-0.474-0.309-0.77-0.639-0.888-0.989-0.123-0.354-0.047-0.743 0.229-1.166zM190.784 24.512l-4.498 6.904-2.694-1.756 5.155-7.912c0.142 0.028 0.348 0.09 0.616 0.185 0.274 0.098 0.547 0.235 0.818 0.412v0c0.469 0.305 0.759 0.631 0.871 0.978 0.112 0.347 0.023 0.743-0.268 1.189z" fill="#ffffff" data-fill-palette-color="accent"></path><path d="M201.91 56.676l7.153-6.04 1.704 2.769-7.671 6.478c-0.128-0.068-0.305-0.184-0.53-0.346-0.225-0.163-0.44-0.365-0.645-0.607v0c-0.365-0.433-0.554-0.834-0.566-1.203-0.016-0.374 0.169-0.725 0.555-1.051zM222.037 43.887l-12.437 10.503-1.734-2.743 12.985-10.966c0.128 0.068 0.307 0.186 0.537 0.353 0.234 0.173 0.447 0.372 0.638 0.6v0c0.378 0.448 0.571 0.854 0.579 1.218 0.008 0.364-0.182 0.709-0.568 1.035z" fill="#ffffff" data-fill-palette-color="accent"></path><path d="M225.083 93.292v0 0c-1.612 0.596-3.088 0.473-4.426-0.368-1.341-0.848-2.426-2.391-3.253-4.629v0c-0.706-1.909-0.984-3.574-0.834-4.995 0.141-1.425 0.563-2.267 1.265-2.527v0c0.303-0.112 0.631-0.14 0.982-0.083 0.343 0.053 0.664 0.211 0.963 0.475v0c-0.224 0.852-0.371 1.805-0.442 2.858-0.062 1.058 0.12 2.162 0.546 3.312v0c0.968 2.617 2.33 3.601 4.088 2.951v0c0.727-0.269 1.243-0.711 1.547-1.326 0.3-0.607 0.393-1.378 0.276-2.312v0l-0.328-3.425c-0.189-1.677-0.018-3.012 0.513-4.006 0.531-0.994 1.387-1.71 2.569-2.147v0c1.334-0.493 2.691-0.381 4.071 0.338 1.377 0.712 2.475 2.175 3.293 4.388v0c0.437 1.182 0.698 2.257 0.783 3.225 0.085 0.968 0.021 1.767-0.191 2.399-0.203 0.636-0.533 1.038-0.988 1.206v0c-0.322 0.119-0.64 0.143-0.954 0.072-0.314-0.071-0.584-0.219-0.811-0.444v0c0.09-0.378 0.169-0.846 0.236-1.402 0.07-0.55 0.068-1.168-0.006-1.852-0.069-0.693-0.243-1.416-0.521-2.168v0c-0.409-1.106-0.95-1.919-1.624-2.439-0.68-0.517-1.409-0.632-2.187-0.345v0c-0.55 0.203-0.962 0.575-1.237 1.115-0.272 0.546-0.349 1.282-0.229 2.208v0l0.316 2.837c0.227 1.857 0.065 3.372-0.486 4.545-0.551 1.174-1.528 2.02-2.931 2.539z" fill="#ffffff" data-fill-palette-color="accent"></path><path d="M25.608 160.678v0 0c-0.631-1.836-1.777-3.149-3.438-3.94-1.661-0.791-3.652-0.787-5.972 0.01v0c-2.295 0.788-3.861 1.986-4.699 3.592-0.84 1.6-0.931 3.359-0.272 5.278v0c0.39 1.135 0.868 2.029 1.435 2.683 0.571 0.645 1.162 1.194 1.773 1.646v0c-0.063 0.357-0.182 0.672-0.359 0.946-0.179 0.268-0.443 0.462-0.794 0.583v0c-0.759 0.261-1.591-0.077-2.497-1.013-0.915-0.94-1.66-2.249-2.235-3.925v0c-0.642-1.868-0.858-3.661-0.651-5.378 0.214-1.72 0.905-3.247 2.072-4.582 1.173-1.337 2.869-2.386 5.087-3.148v0c2.187-0.751 4.164-0.949 5.932-0.595 1.77 0.361 3.281 1.15 4.533 2.366 1.245 1.219 2.169 2.704 2.772 4.458v0c0.576 1.677 0.769 3.161 0.577 4.452-0.193 1.285-0.653 2.052-1.379 2.302v0c-0.325 0.112-0.641 0.117-0.946 0.015-0.308-0.108-0.583-0.288-0.827-0.54v0c0.204-0.733 0.334-1.508 0.388-2.324 0.048-0.815-0.119-1.777-0.5-2.886z" fill="#ffffff" data-fill-palette-color="accent"></path><path d="M40.377 205.646v0 0c-1.389 1.186-2.913 1.602-4.573 1.246-1.65-0.354-3.301-1.498-4.951-3.43v0c-1.41-1.65-2.305-3.217-2.685-4.7-0.381-1.474-0.267-2.471 0.343-2.992v0c0.261-0.223 0.576-0.368 0.945-0.435 0.369-0.076 0.751-0.039 1.146 0.111v0c0.088 0.944 0.291 1.954 0.607 3.031 0.326 1.077 0.916 2.116 1.771 3.116v0c1.926 2.255 3.648 2.735 5.165 1.439v0c0.63-0.538 0.986-1.17 1.067-1.896 0.076-0.721-0.114-1.525-0.571-2.411v0l-1.597-3.317c-0.801-1.602-1.122-3-0.961-4.192 0.166-1.197 0.759-2.23 1.779-3.101v0c1.153-0.985 2.553-1.37 4.2-1.155 1.642 0.21 3.28 1.272 4.913 3.184v0c0.871 1.02 1.528 1.997 1.971 2.93 0.447 0.939 0.681 1.763 0.702 2.472 0.025 0.714-0.157 1.238-0.547 1.571v0c-0.282 0.241-0.594 0.384-0.937 0.428-0.333 0.045-0.657-0.006-0.97-0.155v0c-0.049-0.41-0.142-0.903-0.278-1.478-0.136-0.575-0.365-1.195-0.686-1.861-0.326-0.661-0.766-1.318-1.322-1.969v0c-0.819-0.958-1.662-1.572-2.53-1.841-0.872-0.274-1.644-0.125-2.316 0.449v0c-0.477 0.407-0.75 0.933-0.82 1.578-0.07 0.645 0.123 1.411 0.58 2.297v0l1.364 2.718c0.912 1.774 1.31 3.349 1.191 4.726-0.114 1.382-0.78 2.594-2 3.637z" fill="#ffffff" data-fill-palette-color="accent"></path><path d="M75.761 229.655v0 0c-0.866 1.608-2.137 2.547-3.812 2.816-1.667 0.266-3.619-0.203-5.857-1.408v0c-1.911-1.029-3.312-2.166-4.203-3.411-0.888-1.236-1.143-2.207-0.762-2.913v0c0.163-0.303 0.404-0.552 0.723-0.748 0.317-0.205 0.686-0.308 1.109-0.31v0c0.424 0.848 0.978 1.717 1.663 2.606 0.694 0.886 1.62 1.641 2.777 2.265v0c2.611 1.406 4.39 1.23 5.336-0.527v0c0.393-0.73 0.496-1.448 0.309-2.153-0.19-0.699-0.658-1.38-1.404-2.042v0l-2.688-2.515c-1.327-1.204-2.131-2.391-2.412-3.56-0.278-1.176-0.099-2.354 0.536-3.535v0c0.719-1.335 1.885-2.2 3.499-2.595 1.607-0.398 3.518-0.001 5.731 1.191v0c1.181 0.636 2.147 1.309 2.898 2.019 0.757 0.713 1.273 1.397 1.548 2.051 0.282 0.657 0.301 1.211 0.059 1.662v0c-0.176 0.326-0.415 0.573-0.719 0.738-0.294 0.163-0.615 0.232-0.961 0.206v0c-0.194-0.365-0.459-0.79-0.794-1.277-0.335-0.487-0.773-0.982-1.312-1.487-0.543-0.499-1.191-0.951-1.945-1.357v0c-1.11-0.597-2.118-0.865-3.025-0.802-0.913 0.06-1.578 0.479-1.996 1.256v0c-0.297 0.552-0.362 1.141-0.194 1.768 0.168 0.626 0.625 1.27 1.371 1.932v0l2.255 2.041c1.492 1.324 2.432 2.649 2.82 3.975 0.394 1.33 0.211 2.701-0.55 4.114z" fill="#ffffff" data-fill-palette-color="accent"></path><path d="M103.84 235.537v0l0.447-3.877 3.405 0.393-0.428 3.707c-0.21 1.815 0.122 3.176 0.994 4.084 0.873 0.901 2.16 1.45 3.861 1.646v0c1.138 0.131 2.12 0.123 2.944-0.026 0.818-0.15 1.469-0.326 1.954-0.527v0l0.89-7.704 3.405 0.393-0.875 7.573c-0.069 0.596-0.201 1.062-0.396 1.4-0.195 0.337-0.61 0.642-1.245 0.914v0c-0.672 0.296-1.607 0.547-2.805 0.755-1.205 0.207-2.617 0.217-4.237 0.03v0c-1.875-0.216-3.44-0.679-4.695-1.387-1.256-0.701-2.155-1.667-2.698-2.896-0.551-1.224-0.724-2.716-0.521-4.478zM122.147 226.394l-1.091 9.442-3.404-0.393 1.238-10.727c0.147-0.037 0.375-0.075 0.685-0.115 0.302-0.033 0.611-0.031 0.926 0.005v0c0.623 0.072 1.071 0.246 1.344 0.522 0.267 0.275 0.367 0.697 0.302 1.266zM108.527 224.822l-1.09 9.441-3.405-0.393 1.239-10.727c0.147-0.037 0.375-0.075 0.685-0.114 0.302-0.033 0.624-0.03 0.965 0.009v0c0.596 0.069 1.027 0.241 1.294 0.516 0.273 0.276 0.377 0.698 0.312 1.268z" fill="#ffffff" data-fill-palette-color="accent"></path><path d="M150.669 235.631l-1.615-5.911 3.307-0.903 1.559 5.706c0.302 1.105 0.833 1.795 1.592 2.07 0.755 0.283 1.685 0.273 2.791-0.029v0c0.468-0.128 0.969-0.352 1.503-0.673 0.534-0.321 0.963-0.644 1.287-0.97v0c0.207 0.118 0.416 0.281 0.626 0.49 0.204 0.21 0.351 0.48 0.442 0.812v0c0.165 0.605-0.057 1.2-0.665 1.785-0.617 0.581-1.556 1.044-2.818 1.388v0c-1.931 0.528-3.614 0.53-5.05 0.007-1.431-0.531-2.417-1.789-2.959-3.772zM156.894 222.16l-7.52 2.054-0.746-2.731 8.388-2.291c0.115 0.087 0.248 0.243 0.4 0.467 0.147 0.232 0.258 0.485 0.333 0.758v0c0.121 0.442 0.104 0.817-0.05 1.125-0.147 0.306-0.416 0.512-0.805 0.618zM148.94 216.294l3.759 13.762-3.306 0.903-4.088-14.961c0.122-0.089 0.32-0.21 0.594-0.362 0.267-0.15 0.566-0.27 0.897-0.36v0c0.579-0.158 1.046-0.16 1.403-0.006 0.35 0.156 0.597 0.497 0.741 1.024z" fill="#ffffff" data-fill-palette-color="accent"></path><path d="M174.904 202.502v0 0c-0.328-0.502-0.424-1.044-0.288-1.623 0.127-0.582 0.456-1.046 0.987-1.393v0c0.547-0.357 1.102-0.47 1.663-0.337 0.563 0.123 1.009 0.436 1.337 0.938v0c0.328 0.502 0.437 1.039 0.327 1.61-0.108 0.562-0.436 1.021-0.983 1.379v0c-0.531 0.346-1.086 0.464-1.667 0.351-0.59-0.114-1.048-0.422-1.376-0.925zM188.856 222.928l-5.461-8.364 2.87-1.874 6.141 9.405c-0.089 0.123-0.232 0.292-0.429 0.51-0.206 0.215-0.453 0.416-0.74 0.604v0c-0.502 0.328-0.95 0.475-1.342 0.441-0.398-0.03-0.744-0.271-1.039-0.722zM182.379 206.738l4.798 7.349-2.87 1.874-5.506-8.432c0.089-0.123 0.24-0.298 0.454-0.526 0.211-0.219 0.461-0.422 0.749-0.61v0c0.502-0.328 0.947-0.473 1.333-0.436 0.381 0.041 0.728 0.301 1.042 0.781z" fill="#ffffff" data-fill-palette-color="accent"></path><path d="M214.735 199.585l-7.602-6.481 2.616-2.274 8.156 6.953c-0.051 0.143-0.142 0.348-0.273 0.617-0.132 0.259-0.31 0.52-0.533 0.781v0c-0.389 0.457-0.779 0.727-1.17 0.81-0.386 0.079-0.784-0.057-1.194-0.406zM197.785 180.631l13.203 11.255-2.585 2.3-13.788-11.754c0.046-0.147 0.139-0.355 0.28-0.624 0.14-0.279 0.313-0.539 0.519-0.78v0c0.407-0.477 0.799-0.75 1.175-0.818 0.381-0.073 0.78 0.067 1.196 0.421z" fill="#ffffff" data-fill-palette-color="accent"></path><path d="M233.977 155.004v0 0c1.709 0.645 2.808 1.779 3.298 3.405 0.485 1.617 0.28 3.614-0.617 5.991v0c-0.766 2.031-1.707 3.571-2.823 4.62-1.107 1.045-2.036 1.426-2.786 1.142v0c-0.322-0.121-0.601-0.327-0.837-0.618-0.245-0.287-0.396-0.639-0.455-1.057v0c0.784-0.533 1.572-1.197 2.362-1.995 0.786-0.806 1.412-1.823 1.876-3.053v0c1.046-2.775 0.636-4.515-1.231-5.218v0c-0.776-0.293-1.501-0.299-2.175-0.021-0.668 0.281-1.28 0.835-1.837 1.663v0l-2.136 2.998c-1.017 1.475-2.087 2.43-3.208 2.864-1.128 0.432-2.32 0.411-3.575-0.062v0c-1.419-0.535-2.431-1.576-3.037-3.123-0.608-1.54-0.468-3.487 0.419-5.839v0c0.473-1.255 1.012-2.302 1.617-3.14 0.607-0.845 1.216-1.447 1.826-1.807 0.614-0.367 1.16-0.459 1.64-0.279v0c0.347 0.131 0.623 0.336 0.827 0.615 0.201 0.27 0.311 0.578 0.332 0.925v0c-0.336 0.241-0.722 0.56-1.16 0.956-0.438 0.397-0.871 0.896-1.3 1.498-0.422 0.604-0.785 1.307-1.086 2.108v0c-0.445 1.179-0.576 2.214-0.393 3.105 0.181 0.897 0.684 1.501 1.51 1.812v0c0.587 0.221 1.179 0.207 1.778-0.043 0.598-0.25 1.176-0.788 1.733-1.616v0l1.722-2.505c1.114-1.655 2.302-2.762 3.566-3.324 1.266-0.567 2.649-0.568 4.15-0.002z" fill="#ffffff" data-fill-palette-color="accent"></path><path d="M0.941 122.428c0-5.578 4.522-10.1 10.1-10.1 5.578 0 10.1 4.522 10.1 10.1 0 5.578-4.522 10.1-10.1 10.1-5.578 0-10.1-4.522-10.1-10.1z" fill="#ffffff" data-fill-palette-color="accent"></path><path d="M223.291 122.428c0-5.578 4.522-10.1 10.1-10.1 5.578 0 10.1 4.522 10.099 10.1 0 5.578-4.522 10.1-10.099 10.1-5.578 0-10.1-4.522-10.1-10.1z" fill="#ffffff" data-fill-palette-color="accent"></path></g><g id="text-1"></g></svg></g></svg></g></svg></g><defs></defs></svg><rect width="395.52" height="140.1232966521484" fill="none" stroke="none" visibility="hidden"></rect></g></svg></g></svg>